<svg width="102" height="51" viewBox="0 0 102 51" fill="none" xmlns="http://www.w3.org/2000/svg">
<path id="Vector" d="M30.0792 26.7341L39.9995 0H33.442L28.9023 11.6016L29.9111 0H23.0174L13.0972 26.7341H19.4865L24.3625 13.7874L23.5218 26.3979L30.0792 26.7341ZM37.8137 26.7341L47.7339 0H41.5127L31.4244 26.7341H37.8137ZM55.8046 25.0528L55.4683 11.6016L64.8841 0.672557L55.8046 25.0528ZM101.538 15.637L69.592 23.8758L70.4327 21.3537H63.7071L65.8929 14.9644H71.6096L73.291 10.0884L67.5743 10.4246L69.592 5.04418H75.1406L76.9901 0.168139H58.9992L52.4418 7.90255L55.6364 0H49.2471L39.3269 26.7341H45.8843L50.0878 15.3007V26.7341H58.4948L28.3979 34.6367C25.2592 35.5334 22.4568 35.9258 19.9909 35.8137C17.5248 35.7015 15.6193 35.029 14.2741 33.796C11.2476 31.5542 10.1826 28.1353 11.0795 23.5395C11.6399 20.513 12.8729 17.5986 14.7786 14.7963C10.2948 19.5042 6.988 23.4835 4.85835 26.7341C2.5044 30.2091 0.991148 33.6279 0.318591 36.9906C-0.353966 40.3534 0.038303 43.0996 1.49557 45.2295C5.41876 51.7309 13.9939 52.1792 27.2209 46.5746L101.538 15.637Z" fill="white"/>
</svg>
